<svg width="52" height="40" viewBox="0 0 52 40" fill="none" xmlns="http://www.w3.org/2000/svg">
<path d="M45.2 2.40005H45.2003C46.4253 2.39982 47.604 2.86797 48.4951 3.70859C49.1377 4.31492 49.5957 5.08192 49.8277 5.92127L26 17.8336L2.17228 5.92127C2.40429 5.08192 2.86224 4.31492 3.50493 3.70859C4.39597 2.86797 5.5747 2.39982 6.7997 2.40005H6.79999H45.2ZM25.2844 28.2087L26 28.5665L26.7155 28.2087L50 16.5665V32.8001C50 34.0731 49.4943 35.294 48.5941 36.1942C47.6939 37.0943 46.473 37.6001 45.2 37.6001H6.79999C5.52696 37.6001 4.30606 37.0943 3.40588 36.1942C2.50571 35.294 1.99999 34.0731 1.99999 32.8001V16.5665L25.2844 28.2087Z" fill="white" stroke="white" stroke-width="3.2"/>
</svg>
